<?xml version="1.0" standalone="no"?>
<!DOCTYPE svg PUBLIC "-//W3C//DTD SVG 20010904//EN"
 "http://www.w3.org/TR/2001/REC-SVG-20010904/DTD/svg10.dtd">
<svg version="1.0" xmlns="http://www.w3.org/2000/svg"
 width="1863.000000pt" height="1863.000000pt" viewBox="0 0 1863.000000 1863.000000"
 preserveAspectRatio="xMidYMid meet">
<metadata>
Created by potrace 1.11, written by Peter Selinger 2001-2013
</metadata>
<g transform="translate(0.000000,1863.000000) scale(0.100000,-0.100000)"
fill="#000000" stroke="none">
<path d="M6760 18613 c-149 -102 -420 -419 -510 -598 -32 -62 -43 -98 -50
-160 -5 -44 -13 -93 -19 -108 -6 -15 -15 -65 -21 -110 -5 -45 -19 -131 -30
-192 -68 -371 -83 -502 -101 -850 -27 -553 44 -1060 208 -1475 173 -439 897
-1646 1214 -2026 l68 -81 -36 -34 c-104 -100 -247 -307 -328 -474 -75 -153
-114 -274 -196 -599 -98 -391 -142 -503 -281 -719 -99 -153 -142 -238 -179
-347 -58 -175 -48 -340 29 -446 24 -33 38 -42 83 -52 30 -7 92 -31 139 -54
263 -131 390 -408 350 -768 -14 -135 -39 -239 -100 -426 -99 -303 -171 -654
-206 -1004 -24 -237 -24 -706 0 -910 9 -80 21 -188 27 -240 49 -471 243 -1029
547 -1571 88 -158 103 -202 127 -384 19 -149 38 -540 33 -708 -4 -149 -11
-151 104 38 147 243 238 446 238 535 0 20 -11 91 -24 157 -72 353 -74 606 -6
786 23 61 119 212 233 367 166 226 355 359 575 405 88 19 134 7 204 -53 81
-69 144 -94 252 -100 107 -5 200 14 348 74 160 65 259 46 388 -72 65 -61 155
-187 223 -314 140 -263 299 -763 301 -950 1 -67 -3 -83 -35 -150 -20 -41 -56
-107 -82 -147 -76 -118 -100 -173 -101 -225 0 -40 18 -81 122 -290 132 -264
155 -322 172 -443 20 -146 28 -161 29 -55 1 52 6 124 12 159 15 96 73 264 115
334 61 102 266 402 500 732 699 985 819 1194 918 1595 46 186 72 371 91 640
28 397 36 475 58 565 49 202 23 488 -118 1279 -42 237 -44 308 -11 389 54 130
177 305 359 509 95 108 106 124 126 190 34 118 52 260 58 463 6 227 -2 287
-52 359 -62 91 -139 304 -331 921 -64 204 -145 461 -180 572 l-65 203 68 72
c37 40 121 125 186 188 66 63 219 221 340 350 122 129 296 312 387 405 162
167 166 172 224 290 33 66 86 179 118 250 32 72 65 142 73 156 8 14 27 59 44
100 35 90 235 546 297 681 36 77 53 133 80 264 125 607 172 1366 108 1766 -36
232 -132 471 -230 577 -100 109 -193 137 -396 120 -62 -5 -124 -12 -136 -15
-60 -13 -169 -150 -332 -419 -170 -280 -266 -402 -374 -482 -95 -69 -179 -180
-307 -410 -184 -327 -429 -909 -429 -1017 0 -106 -192 -359 -457 -603 -201
-185 -276 -302 -358 -558 -61 -190 -90 -242 -182 -324 -67 -60 -174 -117 -236
-126 -35 -6 -58 0 -132 30 -50 21 -91 38 -93 40 -1 1 9 22 22 46 57 101 65
201 25 282 -17 33 -23 37 -58 37 -56 0 -66 18 -64 114 1 48 -4 102 -12 132
-14 49 -48 104 -64 104 -5 0 -20 -29 -35 -64 -15 -35 -36 -72 -47 -82 -19 -17
-19 -16 -12 17 14 60 7 240 -11 327 -10 46 -33 129 -51 185 l-33 102 -1 -60
c-1 -33 -8 -90 -15 -126 -16 -72 -61 -173 -75 -165 -4 3 -11 30 -15 61 -9 76
-60 234 -106 326 -121 240 -372 508 -620 662 l-61 38 55 -55 c143 -143 291
-438 424 -846 77 -234 78 -228 -7 -138 -137 146 -303 269 -488 362 -51 25 -95
46 -97 46 -3 0 32 -37 77 -82 45 -46 113 -129 150 -185 63 -95 194 -333 184
-333 -3 0 -121 63 -263 141 -287 156 -322 175 -313 165 4 -4 121 -87 260 -184
202 -142 261 -188 286 -225 38 -57 73 -147 81 -206 l5 -44 -39 22 c-21 12 -90
58 -153 102 -120 84 -120 84 -8 -47 140 -165 171 -285 87 -344 l-29 -21 -24
43 c-440 770 -689 1170 -800 1283 -32 32 -72 85 -88 117 -42 83 -107 281 -199
601 -45 155 -92 316 -106 358 -14 42 -147 321 -297 620 -295 590 -454 926
-499 1058 -33 98 -71 153 -170 247 -73 69 -190 154 -212 154 -6 0 -23 -8 -36
-17z"/>
<path d="M5690 8850 l0 -440 -61 60 c-38 37 -87 73 -132 95 -330 162 -695 2
-838 -368 -56 -146 -70 -231 -76 -457 -7 -296 25 -472 121 -675 124 -260 309
-379 564 -362 182 12 302 86 439 272 l22 30 1 -132 0 -133 280 0 280 0 0 1275
0 1275 -300 0 -300 0 0 -440z m-221 -761 c37 -8 64 -23 99 -54 83 -74 122
-194 122 -370 -1 -181 -36 -302 -109 -375 -142 -141 -333 -62 -385 160 -21 87
-21 332 -1 418 27 114 83 189 161 217 48 17 51 17 113 4z"/>
<path d="M360 8009 l0 -1270 628 4 c589 3 635 5 757 25 240 41 309 73 420 194
133 145 199 367 175 592 -27 262 -147 428 -370 515 l-69 27 53 26 c115 57 222
187 261 318 92 310 -35 650 -288 775 -131 64 -137 65 -889 65 l-678 0 0 -1271z
m1105 738 c89 -40 124 -102 125 -218 0 -101 -31 -167 -98 -207 -47 -27 -49
-27 -254 -30 l-208 -3 0 241 0 242 198 -4 c161 -3 204 -7 237 -21z m89 -976
c93 -46 140 -154 118 -272 -19 -105 -71 -164 -171 -193 -42 -12 -102 -16 -263
-16 l-208 0 0 256 0 256 238 -4 c226 -3 239 -4 286 -27z"/>
<path d="M13295 9048 c-37 -99 -795 -2355 -795 -2365 0 -11 57 -13 337 -11
l338 3 41 155 c23 85 47 174 53 198 l12 42 374 0 375 0 7 -27 c3 -16 27 -104
53 -198 l47 -170 346 -3 c209 -1 347 1 347 7 0 5 -180 541 -400 1191 -220 651
-400 1184 -400 1186 0 2 -164 4 -365 4 -283 0 -367 -3 -370 -12z m481 -1048
l111 -405 -225 -3 c-124 -1 -227 0 -230 2 -2 3 47 192 109 421 63 228 116 409
118 402 3 -6 55 -194 117 -417z"/>
<path d="M3245 8619 c-255 -30 -416 -114 -519 -271 -40 -61 -87 -192 -89 -252
l-2 -40 245 -32 c335 -44 313 -46 339 19 26 63 57 99 114 130 37 19 57 22 159
22 103 0 120 -2 145 -21 41 -31 62 -73 69 -140 l6 -60 -60 -27 c-98 -44 -134
-55 -435 -132 -195 -50 -312 -85 -362 -109 -185 -90 -275 -244 -275 -474 0
-270 154 -464 410 -518 56 -12 107 -15 200 -11 227 10 353 63 511 214 l46 44
6 -50 c3 -27 16 -76 29 -108 l23 -58 284 -3 c267 -2 283 -1 276 15 -4 10 -19
52 -33 93 l-26 75 -7 570 c-7 584 -8 606 -50 735 -30 91 -60 148 -108 202 -82
92 -192 147 -354 173 -113 19 -434 27 -542 14z m462 -1131 c-8 -201 -61 -293
-202 -360 -59 -27 -73 -30 -145 -27 -93 5 -123 22 -158 90 -18 35 -23 56 -20
101 8 115 67 161 308 241 74 25 151 52 170 61 19 8 39 15 44 16 5 0 7 -53 3
-122z"/>
<path d="M15561 8439 c-378 -34 -593 -224 -595 -529 0 -114 25 -199 86 -290
97 -146 208 -196 620 -279 210 -43 257 -58 295 -96 29 -29 33 -40 33 -83 0
-40 -6 -57 -26 -82 -81 -96 -289 -106 -389 -19 -19 17 -49 60 -66 96 -28 59
-33 64 -57 59 -15 -3 -148 -17 -295 -33 l-268 -27 7 -31 c25 -116 93 -234 183
-317 107 -99 256 -149 504 -168 337 -26 600 32 766 170 204 170 255 487 113
706 -106 163 -253 228 -652 288 -91 14 -188 32 -217 41 -92 28 -127 100 -83
172 34 57 63 68 170 68 90 0 100 -2 146 -30 44 -27 65 -55 100 -133 2 -4 558
58 563 64 2 2 -8 33 -24 69 -81 193 -214 312 -400 360 -62 16 -283 36 -370 34
-27 -1 -92 -6 -144 -10z"/>
<path d="M17315 8430 c-262 -40 -435 -169 -496 -372 -18 -59 -21 -87 -17 -176
7 -153 49 -246 157 -350 83 -78 189 -116 526 -186 94 -20 194 -43 223 -51 131
-39 171 -147 84 -230 -88 -87 -301 -85 -384 3 -27 27 -78 121 -78 141 0 6 -15
9 -37 6 -21 -3 -150 -16 -288 -30 -137 -14 -255 -28 -262 -30 -9 -3 -9 -17 3
-57 58 -206 200 -354 394 -412 96 -29 250 -46 426 -46 252 0 391 28 533 107
249 139 356 458 237 708 -97 203 -255 285 -668 345 -261 37 -324 65 -335 146
-4 30 1 47 19 74 34 51 79 70 168 70 118 0 198 -46 235 -133 15 -35 17 -37 53
-32 47 7 492 55 509 55 21 0 16 21 -26 106 -90 186 -196 276 -379 326 -65 17
-112 21 -307 24 -126 1 -257 -1 -290 -6z"/>
<path d="M7640 3963 c-96 -109 -177 -335 -167 -466 9 -133 130 -329 322 -524
69 -70 116 -109 149 -124 58 -25 160 -37 170 -20 4 6 -25 80 -64 164 -180 380
-260 643 -260 857 l0 88 -40 36 c-22 20 -46 36 -54 36 -8 0 -33 -21 -56 -47z"/>
<path d="M10119 3825 c-35 -19 -59 -57 -59 -94 0 -44 -46 -192 -102 -328 -51
-124 -233 -497 -330 -675 -49 -92 -51 -99 -35 -115 19 -19 123 -30 183 -18 73
13 367 332 434 470 41 85 54 174 47 330 -10 205 -52 405 -92 431 -17 10 -25
10 -46 -1z"/>
<path d="M7333 3643 c-25 -106 -26 -322 -1 -373 9 -19 22 -68 27 -107 13 -84
50 -189 151 -428 86 -204 156 -408 209 -612 23 -85 55 -181 75 -220 133 -262
428 -422 851 -463 245 -23 645 -1 645 35 0 9 22 14 73 17 87 5 152 34 252 114
37 30 73 54 80 54 51 0 306 395 494 765 209 411 325 739 336 949 4 76 3 85 -6
56 -295 -935 -606 -1556 -862 -1721 -288 -186 -966 -205 -1397 -38 -183 70
-292 163 -379 321 -151 277 -425 958 -527 1313 l-35 119 21 145 c11 79 18 146
16 149 -2 2 -13 -32 -23 -75z"/>
<path d="M10511 3484 c0 -11 3 -14 6 -6 3 7 2 16 -1 19 -3 4 -6 -2 -5 -13z"/>
</g>
</svg>
